<svg xmlns="http://www.w3.org/2000/svg" width="702.846" height="681.966" viewBox="0 0 702.846 681.966">
  <g id="kubernetes_logo1" transform="translate(-10.001 -10)">
    <path id="Path_7585" data-name="Path 7585" d="M358.987,10.06a47.034,47.034,0,0,0-17.907,4.531L96.737,131.341a46.416,46.416,0,0,0-25.282,31.438l-60.28,262.25a46.025,46.025,0,0,0,6.343,35.531q1.236,1.907,2.656,3.688L189.3,674.528a46.87,46.87,0,0,0,36.531,17.438l271.22-.062a46.871,46.871,0,0,0,36.53-17.406L702.644,464.185a46.053,46.053,0,0,0,9.031-39.219L651.3,162.716a46.416,46.416,0,0,0-25.281-31.437L381.643,14.59a47.055,47.055,0,0,0-22.656-4.53Z" fill="#326ce5" stroke="#fff" stroke-width="0"/>
    <path id="Path_7586" data-name="Path 7586" d="M361.408,99.307c-8.077,0-14.626,7.276-14.625,16.25,0,.138.028.27.031.406-.012,1.22-.07,2.689-.031,3.75.192,5.176,1.32,9.138,2,13.907,1.23,10.206,2.26,18.667,1.625,26.531-.619,2.965-2.8,5.677-4.75,7.562l-.344,6.188a190.337,190.337,0,0,0-26.437,4.062,188.142,188.142,0,0,0-95.563,54.594q-2.665-1.84-5.281-3.75c-2.611.353-5.25,1.159-8.688-.844-6.545-4.4-12.506-10.486-19.719-17.812-3.3-3.5-5.7-6.841-9.625-10.219-.891-.767-2.252-1.8-3.25-2.594a17.39,17.39,0,0,0-10.187-3.843,14.091,14.091,0,0,0-11.656,5.156c-5.036,6.315-3.423,15.968,3.593,21.562.072.057.147.1.22.157.963.781,2.144,1.783,3.03,2.437,4.167,3.077,7.974,4.652,12.125,7.094,8.747,5.4,16,9.88,21.75,15.281,2.246,2.394,2.639,6.613,2.938,8.438l4.687,4.187a189.257,189.257,0,0,0-29.843,131.938l-6.125,1.781c-1.615,2.085-3.9,5.365-6.282,6.344-7.525,2.37-15.994,3.24-26.218,4.312-4.8.4-8.942.161-14.032,1.125-1.12.212-2.68.619-3.906.906l-.125.032c-.067.015-.154.048-.219.062-8.62,2.083-14.157,10.006-12.375,17.813s10.2,12.556,18.875,10.687c.063-.014.154-.017.22-.031.1-.022.183-.07.28-.094,1.21-.265,2.724-.56,3.782-.843,5-1.34,8.627-3.308,13.125-5.032,9.677-3.47,17.691-6.37,25.5-7.5,3.26-.255,6.7,2.012,8.406,2.969l6.375-1.094A190.327,190.327,0,0,0,265.033,526.5l-2.657,6.375c.958,2.475,2.014,5.824,1.3,8.27-2.838,7.36-7.7,15.13-13.237,23.792-2.68,4-5.425,7.108-7.844,11.688-.579,1.1-1.316,2.78-1.875,3.937-3.759,8.043-1,17.3,6.219,20.782,7.266,3.5,16.284-.192,20.187-8.25.006-.012.026-.02.032-.032s0-.022,0-.03c.556-1.143,1.343-2.645,1.812-3.72,2.072-4.747,2.762-8.815,4.219-13.406,3.87-9.72,6-19.919,11.322-26.274,1.46-1.74,3.837-2.41,6.3-3.07l3.312-6A189.274,189.274,0,0,0,429.1,540.9c.931,1.651,2.661,4.826,3.125,5.625,2.506.815,5.24,1.236,7.469,4.531,3.985,6.81,6.71,14.865,10.031,24.594,1.458,4.591,2.178,8.66,4.25,13.406.472,1.082,1.256,2.6,1.813,3.75,3.894,8.085,12.942,11.787,20.218,8.282,7.22-3.478,9.98-12.74,6.22-20.782-.56-1.158-1.328-2.841-1.907-3.937-2.42-4.58-5.163-7.655-7.844-11.656-5.537-8.662-10.13-15.858-12.969-23.22-1.187-3.8.2-6.157,1.125-8.624-.553-.635-1.738-4.22-2.437-5.906A190.326,190.326,0,0,0,542.5,420.9c1.893.3,5.182.88,6.25,1.094,2.2-1.45,4.222-3.344,8.188-3.031,7.808,1.129,15.823,4.03,25.5,7.5,4.5,1.723,8.122,3.723,13.125,5.062,1.057.283,2.572.547,3.781.813.1.023.183.071.281.093.066.015.157.017.22.032,8.672,1.866,17.093-2.88,18.874-10.688s-3.754-15.732-12.375-17.812c-1.254-.286-3.032-.77-4.25-1-5.089-.964-9.23-.727-14.031-1.125-10.225-1.072-18.694-1.943-26.219-4.313-3.068-1.19-5.25-4.841-6.312-6.344l-5.907-1.718a189.982,189.982,0,0,0-30.468-131.625c1.515-1.378,4.376-3.911,5.187-4.657.237-2.624.034-5.375,2.75-8.281,5.751-5.4,13-9.879,21.75-15.281,4.152-2.443,7.99-4.017,12.156-7.094.943-.7,2.23-1.8,3.22-2.594,7.014-5.6,8.63-15.248,3.593-21.562s-14.8-6.909-21.813-1.313c-1,.791-2.353,1.823-3.25,2.594-3.926,3.378-6.351,6.714-9.656,10.219-7.212,7.326-13.174,13.438-19.719,17.844-2.836,1.65-6.99,1.08-8.875.968l-5.562,3.969A191.676,191.676,0,0,0,377.533,174c-.13-1.949-.3-5.471-.344-6.532-1.9-1.821-4.2-3.376-4.781-7.312-.636-7.864.426-16.325,1.656-26.531.68-4.769,1.807-8.73,2-13.907.044-1.176-.026-2.884-.031-4.156,0-8.974-6.548-16.25-14.625-16.25ZM343.1,212.745l-4.343,76.718-.313.157A12.894,12.894,0,0,1,317.97,299.5l-.125.062-62.906-44.594a150.66,150.66,0,0,1,72.563-39.53,154.118,154.118,0,0,1,15.593-2.688Zm36.657,0a151.928,151.928,0,0,1,87.625,42.25l-62.5,44.312-.22-.093a12.911,12.911,0,0,1-20.5-9.845l-.063-.03ZM232.127,283.62l57.437,51.375-.062.312a12.888,12.888,0,0,1-5.063,22.156l-.062.25-73.625,21.25a150.617,150.617,0,0,1,21.375-95.343Zm258.156.03a153.419,153.419,0,0,1,22.031,95.063l-74-21.312-.062-.313a12.9,12.9,0,0,1-5.063-22.156l-.031-.156,57.125-51.125ZM349.627,338.963h23.53l14.626,18.282-5.25,22.812-21.125,10.156L340.22,380.026l-5.25-22.813Zm75.437,62.563a12.869,12.869,0,0,1,2.969.219l.125-.157,76.156,12.875a150.816,150.816,0,0,1-60.969,76.594l-29.562-71.406.093-.125a12.943,12.943,0,0,1,11.188-18Zm-127.906.312a12.9,12.9,0,0,1,11.656,17.969l.219.281-29.25,70.688A151.435,151.435,0,0,1,219,414.713L294.5,401.9l.125.156a13.122,13.122,0,0,1,2.53-.219Zm63.781,30.97a13,13,0,0,1,11.813,6.78h.28l37.22,67.25a154.257,154.257,0,0,1-14.875,4.157,151.239,151.239,0,0,1-82.532-4.25L349.97,439.62h.063a12.91,12.91,0,0,1,10.906-6.813Z" fill="#fff" stroke="#fff" stroke-width="0.25"/>
  </g>
</svg>
